<svg width="24" height="32" viewBox="0 0 24 32" fill="none" xmlns="http://www.w3.org/2000/svg">
    <path
        d="M10.0265 19.5957C10.0265 18.7446 9.33139 18.0547 8.4739 18.0547C7.61641 18.0547 6.9213 18.7446 6.9213 19.5957C6.9213 20.4468 7.61641 21.1367 8.4739 21.1367C9.33139 21.1367 10.0265 20.4468 10.0265 19.5957Z"
        fill="currentColor" />
    <path
        d="M5.88625 18.0541C6.74375 18.0541 7.43886 17.3642 7.43886 16.5132C7.43886 15.6621 6.74375 14.9722 5.88625 14.9722C5.02876 14.9722 4.33365 15.6621 4.33365 16.5132C4.33365 17.3642 5.02876 18.0541 5.88625 18.0541Z"
        fill="currentColor" />
    <path
        d="M3.29861 11.8906C2.44112 11.8906 1.746 12.5805 1.746 13.4316C1.746 14.2827 2.44112 14.9726 3.29861 14.9726C4.1561 14.9726 4.85121 14.2827 4.85121 13.4316C4.85121 12.5805 4.1561 11.8906 3.29861 11.8906Z"
        fill="currentColor" />
    <path
        d="M3.29857 9.83567C3.29857 8.98459 2.60346 8.29468 1.74597 8.29468C0.888474 8.29468 0.193359 8.98459 0.193359 9.83567C0.193359 10.6867 0.888474 11.3767 1.74597 11.3767C2.60346 11.3767 3.29857 10.6867 3.29857 9.83567Z"
        fill="currentColor" />
    <path
        d="M3.29861 7.7812C4.1561 7.7812 4.85121 7.09128 4.85121 6.24021C4.85121 5.38913 4.1561 4.69922 3.29861 4.69922C2.44112 4.69922 1.746 5.38913 1.746 6.24021C1.746 7.09128 2.44112 7.7812 3.29861 7.7812Z"
        fill="currentColor" />
    <path
        d="M5.88625 4.69941C6.74375 4.69941 7.43886 4.0095 7.43886 3.15842C7.43886 2.30735 6.74375 1.61743 5.88625 1.61743C5.02876 1.61743 4.33365 2.30735 4.33365 3.15842C4.33365 4.0095 5.02876 4.69941 5.88625 4.69941Z"
        fill="currentColor" />
    <path
        d="M9.509 3.15815C10.3665 3.15815 11.0616 2.46824 11.0616 1.61716C11.0616 0.766086 10.3665 0.0761719 9.509 0.0761719C8.65151 0.0761719 7.95639 0.766086 7.95639 1.61716C7.95639 2.46824 8.65151 3.15815 9.509 3.15815Z"
        fill="currentColor" />
    <path
        d="M15.7195 18.0547C14.862 18.0547 14.1669 18.7446 14.1669 19.5957C14.1669 20.4468 14.862 21.1367 15.7195 21.1367C16.577 21.1367 17.2721 20.4468 17.2721 19.5957C17.2721 18.7446 16.577 18.0547 15.7195 18.0547Z"
        fill="currentColor" />
    <path
        d="M18.3071 18.0541C19.1646 18.0541 19.8597 17.3642 19.8597 16.5132C19.8597 15.6621 19.1646 14.9722 18.3071 14.9722C17.4496 14.9722 16.7545 15.6621 16.7545 16.5132C16.7545 17.3642 17.4496 18.0541 18.3071 18.0541Z"
        fill="currentColor" />
    <path
        d="M20.8948 11.8906C20.0373 11.8906 19.3422 12.5805 19.3422 13.4316C19.3422 14.2827 20.0373 14.9726 20.8948 14.9726C21.7523 14.9726 22.4474 14.2827 22.4474 13.4316C22.4474 12.5805 21.7523 11.8906 20.8948 11.8906Z"
        fill="currentColor" />
    <path
        d="M22.4474 8.29468C21.5899 8.29468 20.8948 8.98459 20.8948 9.83567C20.8948 10.6867 21.5899 11.3767 22.4474 11.3767C23.3049 11.3767 24 10.6867 24 9.83567C24 8.98459 23.3049 8.29468 22.4474 8.29468Z"
        fill="currentColor" />
    <path
        d="M19.3422 6.24021C19.3422 7.09128 20.0373 7.7812 20.8948 7.7812C21.7523 7.7812 22.4474 7.09128 22.4474 6.24021C22.4474 5.38913 21.7523 4.69922 20.8948 4.69922C20.0373 4.69922 19.3422 5.38913 19.3422 6.24021Z"
        fill="currentColor" />
    <path
        d="M18.3071 4.69941C19.1646 4.69941 19.8597 4.0095 19.8597 3.15842C19.8597 2.30735 19.1646 1.61743 18.3071 1.61743C17.4496 1.61743 16.7545 2.30735 16.7545 3.15842C16.7545 4.0095 17.4496 4.69941 18.3071 4.69941Z"
        fill="currentColor" />
    <path
        d="M14.6844 3.15815C15.5419 3.15815 16.237 2.46824 16.237 1.61716C16.237 0.766086 15.5419 0.0761719 14.6844 0.0761719C13.8269 0.0761719 13.1318 0.766086 13.1318 1.61716C13.1318 2.46824 13.8269 3.15815 14.6844 3.15815Z"
        fill="currentColor" />
    <path
        d="M12.6142 25.0333V24.6593C13.7212 24.3756 14.3869 23.255 14.1011 22.1562C13.8153 21.0575 12.6861 20.3968 11.5791 20.6805C10.4721 20.9642 9.80644 22.0848 10.0923 23.1836C10.2805 23.9073 10.8499 24.4725 11.5791 24.6593V25.0333L8.62555 27.9647C8.42352 28.1653 8.42352 28.4905 8.62555 28.6911L11.7308 31.773C11.9329 31.9736 12.2605 31.9736 12.4626 31.773L15.5678 28.6911C15.7698 28.4905 15.7698 28.1653 15.5678 27.9647L12.6142 25.0333Z"
        fill="currentColor" />
</svg>