<svg width="29" height="19" viewBox="0 0 29 19" fill="none">
    <path
        d="M11.6093 10.0761C10.3698 9.09385 8.92516 8.57489 7.43591 8.57489C4.08511 8.57489 1.24818 11.2605 0.380612 15.2571C0.226925 15.9679 0.361996 16.7057 0.751625 17.2825C1.13043 17.8438 1.69669 18.1662 2.30494 18.1662H25.9476C21.4794 18.1662 19.2373 16.579 15.8523 13.6934L11.6093 10.0761ZM21.7677 9.73142L20.5967 3.02733C20.5337 2.66354 20.397 2.3161 20.1949 2.00584C19.9928 1.69558 19.7293 1.42891 19.4205 1.22181C19.1116 1.01471 18.7636 0.871463 18.3973 0.800656C18.0311 0.72985 17.6542 0.732946 17.2892 0.809758L9.01391 2.54776C8.44231 2.66774 7.92369 2.96338 7.5322 3.39243C7.14071 3.82147 6.89638 4.36195 6.83416 4.9366L6.53587 7.7288C6.83459 7.69326 7.12897 7.64316 7.43591 7.64316C9.24509 7.64316 10.9859 8.26617 12.5136 9.47665L16.7563 13.094C19.833 15.7162 21.7439 17.2345 25.9476 17.2345C26.4987 17.2345 27.0273 17.018 27.417 16.6325C27.8067 16.2471 28.0256 15.7243 28.0256 15.1792C28.0256 14.0921 26.7442 10.0697 21.7677 9.73142Z"
        fill="currentColor" />
</svg>