<svg width="13" height="25" viewBox="0 0 13 25" fill="none" xmlns="http://www.w3.org/2000/svg">
    <path fillRule="evenodd" clipRule="evenodd"
        d="M4.5562 24.833H0.554077V6.67287C1.1584 6.57696 1.77472 6.34803 2.33402 5.89634C3.13845 5.24873 3.68674 4.21852 3.89885 2.97072H9.22267C9.43479 4.21852 9.98308 5.24873 10.7875 5.89634C11.3448 6.34596 11.9581 6.5749 12.5604 6.67184V24.833H8.55832L6.58928 9.3644L4.5562 24.833ZM0.554077 2.97072H3.08442C2.89232 3.95143 2.45809 4.74858 1.84076 5.24666C1.47657 5.5416 1.04634 5.73753 0.554077 5.83344V2.97072ZM10.0381 2.97072H12.5604V5.83241C12.0712 5.73547 11.644 5.54057 11.2808 5.24666C10.6634 4.74858 10.2302 3.95143 10.0381 2.97072ZM12.5604 2.14573H0.554077V0.083252H12.5604V2.14573ZM6.55726 0.598871C6.83341 0.598871 7.05753 0.829869 7.05753 1.11449C7.05753 1.39911 6.83341 1.63011 6.55726 1.63011C6.28111 1.63011 6.057 1.39911 6.057 1.11449C6.057 0.829869 6.28111 0.598871 6.55726 0.598871Z"
        fill="#56d9e1" />
</svg>