<svg width="36" height="18" viewBox="0 0 36 18" fill="none" xmlns="http://www.w3.org/2000/svg">
    <path
        d="M33.4321 9.86551C32.3685 9.38576 30.9857 9.09578 29.4874 9.03296V13.928C30.9857 13.8652 32.3685 13.5752 33.4321 13.0954C34.4547 12.6341 35.0656 12.0302 35.0656 11.4806C35.0656 10.9311 34.455 10.3269 33.4321 9.86551Z"
        fill="#56d9e1" />
    <path
        d="M28.8675 15.1714H0.356537V17.0169C0.356721 17.18 0.422081 17.3363 0.538277 17.4516C0.654472 17.567 0.812015 17.6318 0.97634 17.632H28.8675C30.0813 17.6307 31.2682 17.2762 32.2811 16.6124C33.2941 15.9485 34.0887 15.0044 34.5666 13.897C34.365 14.0135 34.1575 14.1198 33.9449 14.2153C32.5785 14.8319 30.7752 15.1714 28.8675 15.1714Z"
        fill="#56d9e1" />
    <path
        d="M24.4407 11.1636L26.1196 13.9407H28.2479V8.76474L26.2666 7.6636L25.0334 9.37698C24.9378 9.50975 24.7931 9.5994 24.6309 9.62623C24.4688 9.65305 24.3025 9.61484 24.1688 9.52001C24.035 9.42518 23.9447 9.28149 23.9177 9.12055C23.8906 8.95962 23.9291 8.79462 24.0247 8.66186L25.1784 7.05858L23.104 5.90568L21.9341 7.53126C21.8868 7.597 21.8269 7.65284 21.7579 7.69561C21.6888 7.73837 21.612 7.76722 21.5317 7.7805C21.4514 7.79378 21.3693 7.79124 21.29 7.77301C21.2107 7.75479 21.1358 7.72124 21.0695 7.67428C21.0033 7.62733 20.947 7.56788 20.9039 7.49934C20.8608 7.43081 20.8318 7.35452 20.8184 7.27483C20.805 7.19514 20.8076 7.11362 20.8259 7.03491C20.8443 6.95621 20.8781 6.88187 20.9254 6.81613L22.0157 5.30074L19.9418 4.148L18.8351 5.68591C18.7878 5.75165 18.7279 5.8075 18.6589 5.85027C18.5898 5.89303 18.513 5.92188 18.4327 5.93516C18.3524 5.94844 18.2702 5.9459 18.1909 5.92767C18.1116 5.90945 18.0367 5.8759 17.9705 5.82894C17.9043 5.78199 17.848 5.72254 17.8049 5.654C17.7618 5.58546 17.7328 5.50917 17.7194 5.42949C17.706 5.3498 17.7086 5.26828 17.7269 5.18957C17.7453 5.11087 17.7791 5.03652 17.8264 4.97079L18.8536 3.54345L16.7798 2.39101L15.7363 3.8405C15.689 3.90623 15.6291 3.96208 15.5601 4.00485C15.491 4.04761 15.4142 4.07646 15.3339 4.08974C15.2536 4.10302 15.1715 4.10048 15.0922 4.08225C15.0129 4.06403 14.938 4.03048 14.8717 3.98352C14.8055 3.93657 14.7492 3.87712 14.7061 3.80858C14.663 3.74004 14.634 3.66375 14.6206 3.58407C14.6072 3.50438 14.6098 3.42286 14.6281 3.34415C14.6465 3.26545 14.6803 3.1911 14.7276 3.12537L15.6916 1.786L13.9684 0.828184C13.8421 0.758027 13.6952 0.733906 13.5529 0.76C13.4106 0.786093 13.2821 0.860758 13.1894 0.971056L11.2161 3.32145L24.2242 10.9507C24.3131 11.0027 24.3875 11.0759 24.4407 11.1636Z"
        fill="#56d9e1" />
    <path
        d="M5.31496 13.8908C5.31341 13.1802 5.06463 12.4919 4.6107 11.9423C4.15676 11.3928 3.52553 11.0156 2.82374 10.8748L0.356537 10.385V13.9407H5.31496V13.8908Z"
        fill="#56d9e1" />
    <path
        d="M4.63434 6.35115C6.94171 6.86804 9.3216 6.42851 11.7203 5.04631L10.3354 4.23383C9.65268 4.74449 8.86829 5.10507 8.03435 5.2916C5.3155 5.89139 2.98783 4.39193 1.5141 3.02941C1.40036 2.92481 1.25079 2.86707 1.09573 2.86793H0.97634C0.812014 2.86811 0.654472 2.93298 0.538277 3.04831C0.422081 3.16364 0.356721 3.32 0.356537 3.48309V3.97523C0.701225 4.3847 2.20998 5.80773 4.63434 6.35115Z"
        fill="#56d9e1" />
    <path
        d="M6.55457 13.8911V13.941H24.6737L23.4585 11.9305L12.9296 5.75542C10.7994 7.10663 8.64756 7.78931 6.51831 7.78931C6.27209 7.78931 6.02637 7.78021 5.78113 7.76201C3.9951 7.62365 2.27913 7.01252 0.811937 5.99226C0.64366 5.87561 0.493281 5.76318 0.356537 5.65576V9.13052L3.06678 9.66879C4.04925 9.86603 4.93295 10.3939 5.56846 11.1633C6.20397 11.9326 6.55231 12.8962 6.55457 13.8911Z"
        fill="#56d9e1" />
</svg>