<svg width="25" height="21" viewBox="0 0 25 21" fill="none">
    <path
        d="M23.8091 4.46163L16.505 0.833496C15.7509 1.8787 14.0815 2.60809 12.1345 2.60809C10.1875 2.60809 8.51804 1.8787 7.76399 0.833496L0.459832 4.46163C0.163465 4.61202 0.0434167 4.97295 0.189725 5.26997L2.33558 9.57485C2.48564 9.87187 2.84578 9.99218 3.14215 9.84555L5.26549 8.80411C5.66315 8.6086 6.12834 8.8981 6.12834 9.34551V18.8802C6.12834 19.5456 6.6648 20.0833 7.32882 20.0833H16.9326C17.5967 20.0833 18.1331 19.5456 18.1331 18.8802V9.34175C18.1331 8.8981 18.5983 8.60485 18.996 8.80035L21.1193 9.84179C21.4157 9.99218 21.7758 9.87187 21.9259 9.57109L24.0755 5.26997C24.2255 4.97295 24.1055 4.60826 23.8091 4.46163Z"
        fill="#56d9e1" />
</svg>