<svg width="19" height="25" viewBox="0 0 19 25" fill="none" xmlns="http://www.w3.org/2000/svg">
    <path
        d="M0.707031 16.5503V19.5443C0.707031 20.7354 1.18375 21.8777 2.03233 22.7199C2.8809 23.5621 4.03181 24.0353 5.23187 24.0353H14.2816C15.4816 24.0353 16.6325 23.5621 17.4811 22.7199C18.3297 21.8777 18.8064 20.7354 18.8064 19.5443V16.5503H0.707031Z"
        fill="#56d9e1" />
    <path fillRule="evenodd" clipRule="evenodd"
        d="M9.75708 0.083252C8.75703 0.083252 7.79794 0.477549 7.09079 1.1794C6.38365 1.88126 5.98638 2.83317 5.98638 3.82574V3.89161C4.41094 4.60851 3.076 5.75927 2.14021 7.20713C1.20441 8.65498 0.707109 10.3391 0.707398 12.0592V15.0532H18.8068V12.0592C18.8071 10.3391 18.3098 8.65498 17.374 7.20713C16.4382 5.75927 15.1032 4.60851 13.5278 3.89161V3.82574C13.5278 2.83317 13.1305 1.88126 12.4234 1.1794C11.7162 0.477549 10.7571 0.083252 9.75708 0.083252ZM9.75708 3.07724C10.5203 3.07724 11.2608 3.17155 11.9682 3.3467C11.8588 2.84536 11.5797 2.39632 11.1775 2.07427C10.7752 1.75223 10.2739 1.57659 9.75708 1.57659C9.24025 1.57659 8.73899 1.75223 8.33671 2.07427C7.93442 2.39632 7.65536 2.84536 7.54594 3.3467C8.25484 3.17155 8.99389 3.07724 9.75708 3.07724ZM7.78912 7.38748C6.3432 7.38748 5.17105 8.55963 5.17105 10.0055C5.17105 11.4515 6.3432 12.6236 7.78911 12.6236H11.8867C13.3327 12.6236 14.5048 11.4515 14.5048 10.0055C14.5048 8.55963 13.3327 7.38748 11.8867 7.38748H7.78912Z"
        fill="#56d9e1" />
    <rect x="6.38855" y="8.59521" width="6.89887" height="2.81945" rx="1.40973" fill="#56d9e1" />
</svg>